<?xml version="1.0" encoding="UTF-8" standalone="no"?>
<!-- Created with Inkscape (http://www.inkscape.org/) -->
<svg
   xmlns:dc="http://purl.org/dc/elements/1.1/"
   xmlns:cc="http://creativecommons.org/ns#"
   xmlns:rdf="http://www.w3.org/1999/02/22-rdf-syntax-ns#"
   xmlns:svg="http://www.w3.org/2000/svg"
   xmlns="http://www.w3.org/2000/svg"
   xmlns:sodipodi="http://sodipodi.sourceforge.net/DTD/sodipodi-0.dtd"
   xmlns:inkscape="http://www.inkscape.org/namespaces/inkscape"
   id="svg2"
   sodipodi:version="0.32"
   inkscape:version="0.46"
   width="131.59"
   height="139.15976"
   version="1.0"
   sodipodi:docname="lockout-tagout_hasp.svg"
   inkscape:output_extension="org.inkscape.output.svg.inkscape">
  <metadata
     id="metadata7">
    <rdf:RDF>
      <cc:Work
         rdf:about="">
        <dc:format>image/svg+xml</dc:format>
        <dc:type
           rdf:resource="http://purl.org/dc/dcmitype/StillImage" />
      </cc:Work>
    </rdf:RDF>
  </metadata>
  <defs
     id="defs5">
    <inkscape:perspective
       sodipodi:type="inkscape:persp3d"
       inkscape:vp_x="0 : 526.18109 : 1"
       inkscape:vp_y="0 : 1000 : 0"
       inkscape:vp_z="744.09448 : 526.18109 : 1"
       inkscape:persp3d-origin="372.04724 : 350.78739 : 1"
       id="perspective9" />
  </defs>
  <sodipodi:namedview
     inkscape:window-height="669"
     inkscape:window-width="640"
     inkscape:pageshadow="2"
     inkscape:pageopacity="0.0"
     guidetolerance="10.0"
     gridtolerance="10.0"
     objecttolerance="10.0"
     borderopacity="1.0"
     bordercolor="#666666"
     pagecolor="#ffffff"
     id="base"
     showgrid="false"
     inkscape:zoom="2.4349842"
     inkscape:cx="70.369834"
     inkscape:cy="53.636611"
     inkscape:window-x="69"
     inkscape:window-y="69"
     inkscape:current-layer="svg2" />
  <g
     id="g2443">
    <g
       transform="matrix(1.1921752,0,0,1.1921752,-10.810525,-20.955619)"
       id="g2416">
      <g
         id="g2410"
         transform="matrix(0.2858017,0.9582888,-0.9582888,0.2858017,204.75323,58.611665)">
        <path
           style="fill:#a09e9d"
           d="M -14.048047,191.85309 C -18.046621,185.98895 -23.684084,178.22645 -26.575742,174.60309 C -29.467401,170.97972 -32.361052,166.21515 -33.006077,164.01515 C -33.651103,161.81515 -34.315767,159.83459 -34.483107,159.61389 C -34.650447,159.3932 -36.996825,161.27933 -39.69728,163.80529 C -43.202289,167.08382 -46.254594,168.87686 -50.36456,170.07166 C -59.129898,172.61981 -63.700261,171.60897 -79.818182,163.5573 C -82.816442,162.05953 -85.449282,145.29344 -83.824632,138.04395 C -82.229222,130.92491 -81.125312,129.34426 -78.000924,129.70522 C -75.069873,130.04384 -75.119162,129.70546 -76.396604,140.71896 C -77.278176,148.31946 -76.510309,150.80897 -71.662146,156.0686 C -62.42228,166.09267 -46.908308,163.59567 -40.864939,151.11174 C -38.924154,147.10261 -38.7335,145.59786 -39.34267,139.0971 L -40.039059,131.6656 L -35.560205,126.84038 C -28.337272,119.05886 -25.946998,112.76939 -27.892478,106.66446 C -29.954802,100.19289 -38.076032,93.51515 -43.884209,93.51515 C -45.129281,93.51515 -49.68765,94.927672 -54.013917,96.654088 C -62.195998,99.919182 -64.256862,101.81884 -67.152763,108.76515 C -68.968953,113.12159 -70.409215,113.50684 -71.981211,110.05669 C -73.974073,105.68283 -71.253055,98.811415 -65.164905,92.843404 C -58.600102,86.408145 -52.157545,84.585497 -42.012273,86.293348 C -36.209533,87.27018 -35.208481,87.840927 -29.466692,93.44618 C -23.257804,99.507425 -20.818182,104.42042 -20.818182,110.86284 C -20.818182,114.30661 -19.731781,114.78261 -17.231935,112.43413 C -15.934922,111.21564 -10.449224,109.08142 -4.1577478,107.34758 C 13.164437,102.57383 15.428167,101.85786 20.181817,99.649554 C 22.656817,98.49979 25.893537,97.549191 27.374517,97.537112 C 29.966717,97.51597 30.255987,98.090766 35.124517,112.93685 C 37.906037,121.41878 40.181817,129.05964 40.181817,129.91652 C 40.181817,132.088 34.983987,134.46576 18.181817,139.98048 C 10.206817,142.598 3.2889772,145.10444 2.8088382,145.55035 C 2.3287002,145.99627 6.9816542,153.62895 13.148737,162.51187 C 21.922617,175.14956 24.235717,179.16427 23.782797,180.96883 C 22.918227,184.41356 -1.7971368,202.51515 -5.6359038,202.51515 C -6.2640088,202.51515 -10.049473,197.71722 -14.048047,191.85309 z M -0.38961083,193.94372 C 2.0139512,191.54016 1.5691002,188.65046 -1.3159458,187.92636 C -6.6366118,186.59095 -9.7585958,190.52548 -5.8741568,193.67091 C -3.0966938,195.91996 -2.4004808,195.95459 -0.38961083,193.94372 z M 15.247557,182.47997 C 18.152207,180.92544 17.789387,176.70574 14.684057,175.92636 C 9.3633873,174.59095 6.2414042,178.52548 10.125847,181.67091 C 12.790597,183.8287 12.741827,183.82099 15.247557,182.47997 z M -8.7839718,179.45123 C -7.9580798,177.90803 -7.9907878,177.0121 -8.9136128,175.90016 C -10.637693,173.82277 -16.200362,174.4799 -16.642568,176.81319 C -17.467498,181.16591 -10.884341,183.3758 -8.7839718,179.45123 z M 7.2160282,167.45123 C 8.0419172,165.90803 8.0092072,165.0121 7.0863872,163.90016 C 5.3623072,161.82277 -0.20036183,162.4799 -0.64256783,164.81319 C -1.4674978,169.16592 5.1156592,171.3758 7.2160282,167.45123 z M -19.346832,167.15976 C -16.641251,165.18139 -18.059931,162.51515 -21.818182,162.51515 C -25.576433,162.51515 -26.995113,165.18139 -24.289532,167.15976 C -23.270047,167.90522 -22.157939,168.51515 -21.818182,168.51515 C -21.478425,168.51515 -20.366317,167.90522 -19.346832,167.15976 z M -2.8287508,155.02789 C -0.91220083,152.71858 -2.3718498,150.51515 -5.8181818,150.51515 C -9.5764328,150.51515 -10.995113,153.18139 -8.2895318,155.15976 C -5.8949468,156.91072 -4.3606148,156.87367 -2.8287508,155.02789 z M -21.997376,143.82761 C -18.323819,141.24946 -15.133441,139.00222 -14.907646,138.83374 C -14.681851,138.66526 -15.298592,137.64178 -16.278181,136.55935 C -18.049494,134.60207 -18.068178,134.60211 -19.688717,136.56664 C -20.584923,137.65308 -23.562539,140.00115 -26.305641,141.78456 C -31.362864,145.07249 -33.416544,148.51515 -30.3207,148.51515 C -29.416429,148.51515 -25.670933,146.40576 -21.997376,143.82761 z M 3.5758412,137.26515 C 4.9995062,134.99144 3.3108462,132.13875 0.27464817,131.68839 C -3.8859298,131.07124 -6.4389958,135.49434 -3.5752058,138.35813 C -1.8899058,140.04343 2.2305802,139.41365 3.5758412,137.26515 z M 17.981817,134.31515 C 19.818937,132.47803 19.409677,128.70746 17.247557,127.55033 C 14.619677,126.14394 13.595977,126.24385 11.753247,128.08658 C 9.6947873,130.14504 9.7704773,131.10381 12.181817,133.51515 C 14.464617,135.79795 16.252427,136.04454 17.981817,134.31515 z M -27.75127,132.44824 C -26.10823,130.8052 -25.928265,130.08743 -26.873714,128.94824 C -29.054882,126.32009 -34.818182,127.49837 -34.818182,130.57245 C -34.818182,132.24106 -32.464339,134.40786 -30.568182,134.48474 C -30.155682,134.50147 -28.888071,133.58504 -27.75127,132.44824 z M 33.136137,129.07019 C 33.795697,128.27547 34.188297,126.58797 34.008577,125.32019 C 33.745177,123.46207 32.971197,122.95596 30.016757,122.70985 C 26.958417,122.45509 26.233837,122.7759 25.639727,124.64777 C 25.110247,126.31602 25.501347,127.35547 27.165567,128.70308 C 29.868387,130.89168 31.539167,130.99442 33.136137,129.07019 z M -2.4254238,119.26515 C -0.15254583,115.63936 -5.9461028,111.71657 -9.3732238,114.56083 C -11.346081,116.19816 -11.191037,119.19425 -9.0681818,120.45549 C -6.6616328,121.88528 -3.7396658,121.36168 -2.4254238,119.26515 z M 11.981817,116.31515 C 13.720277,114.57669 13.468827,109.83926 11.600027,109.12214 C 5.1930312,106.66354 1.3329122,113.35029 7.4538172,116.30447 C 10.385257,117.7193 10.577217,117.71975 11.981817,116.31515 z M 28.350277,110.04476 C 29.801617,106.85942 28.034407,104.51515 24.181817,104.51515 C 20.543637,104.51515 18.686727,106.72156 20.100967,109.36408 C 22.133487,113.16188 26.756227,113.54332 28.350277,110.04476 z"
           id="path2396" />
        <path
           sodipodi:nodetypes="cssssssssssssssssssssssccsssccssccssccsssccsssccsssccssccssccsssccssssccssccssssssssssssssssccscccssccsssccc"
           style="fill:#6f6e6d"
           d="M -10.240785,192.225 C -13.133353,187.99875 -18.377526,180.68625 -21.894503,175.975 C -29.113402,166.30476 -31.031068,162.42414 -30.929715,157.69121 C -30.825192,152.8103 -29.819274,151.02839 -25.799024,148.60255 C -23.7997,147.39615 -20.539905,145.10895 -18.555037,143.51988 C -15.841147,141.34717 -13.835184,142.01486 -9.9073692,141.75415 C -7.0346682,141.56347 -4.0499997,139.8872 -3.4999997,139.82598 C -2.9499997,139.76475 -1.1111608,140.02492 0.58631017,140.40413 C 4.3676672,141.24889 7.0000001,139.04637 7.0000001,135.03767 C 7.0000001,131.474 5.3217592,129.90909 1.5000002,129.90909 C -2.3242988,129.90909 -5.1447314,132.69446 -5.1447314,136.26644 C -5.1447314,138.86506 -3.2487036,139.96333 -6.8089376,139.41658 C -8.8714376,139.09984 -12.992643,139.27624 -13.76534,138.66506 C -16.220703,136.72294 -17,128.16327 -17,121.99698 C -17,112.93896 -15.569904,111.79862 2.0000002,106.84664 C 9.9749992,104.59893 19.276749,101.66846 22.670559,100.33449 C 26.064359,99.000516 29.267649,97.909086 29.788969,97.909086 C 31.213469,97.909086 40.195369,125.34628 39.823079,128.56049 C 39.514119,131.22796 38.713239,131.61906 21.499999,137.50844 C 9.4851192,141.61924 -6.2327439,138.55285 -6.4399009,139.58992 C -6.6105929,140.44445 7.0774321,152.76718 12.208479,160.09173 C 24.473009,177.59929 25.238579,178.84498 24.660129,180.3524 C 23.913339,182.29851 -1.1831428,199.9091 -3.2097147,199.9091 C -4.2955117,199.9091 -7.0179257,196.93383 -10.240785,192.225 z M 2.1712592,194.25411 C 4.6160822,192.04158 4.5555792,187.2768 2.0657412,185.94428 C -0.70551183,184.46115 -3.0714447,184.66378 -5.1712587,186.56409 C -7.5540467,188.72048 -7.4911517,191.41795 -4.9999997,193.9091 C -2.5666528,196.34245 -0.25900283,196.45347 2.1712592,194.25411 z M 18.428569,182.33767 C 23.363949,177.4023 16.007349,169.8775 10.828739,174.56409 C 8.3423772,176.81422 8.5269222,180.46434 11.222509,182.3524 C 14.052179,184.33438 16.436739,184.3295 18.428569,182.33767 z M -5.5856627,178.68938 C -4.3871517,175.25983 -7.0406017,171.90909 -10.954988,171.90909 C -14.185839,171.90909 -16,173.57351 -16,176.53767 C -16,182.21373 -7.4356697,183.98321 -5.5856627,178.68938 z M 10.414179,166.68938 C 11.612889,163.25983 8.9595062,159.90909 5.0450122,159.90909 C 1.6973512,159.90909 1.6888992e-07,161.5913 1.6888992e-07,164.90909 C 1.6888992e-07,168.53003 1.8958372,170.05105 5.9775022,169.70481 C 8.7430912,169.47021 9.6600392,168.847 10.414179,166.68938 z M -16.934259,167.87391 C -14.77214,166.71678 -14.36288,162.94621 -16.2,161.10909 C -16.86,160.44909 -18.57,159.90909 -20,159.90909 C -23.195886,159.90909 -25,161.58703 -25,164.5594 C -25,168.17459 -20.755326,169.91888 -16.934259,167.87391 z M -0.93425883,155.87391 C 1.2278602,154.71678 1.6371202,150.94621 -0.19999983,149.10909 C -0.85999983,148.44909 -2.5699998,147.90909 -3.9999997,147.90909 C -7.1444987,147.90909 -8.9999997,149.57905 -8.9999997,152.40909 C -8.9999997,156.44545 -5.1180657,158.11302 -0.93425883,155.87391 z M 21.393009,134.32731 C 23.372079,129.16995 21.110709,124.90909 16.394479,124.90909 C 14.032739,124.90909 10.999999,127.80719 10.999999,130.06408 C 10.999999,134.58432 19.894339,138.23279 21.393009,134.32731 z M 36.618799,128.36813 C 40.060359,123.11565 33.903279,117.77677 28.492709,121.32191 C 25.483389,123.29369 25.294429,126.20352 27.999999,128.90909 C 30.800349,131.70945 34.585129,131.47189 36.618799,128.36813 z M -0.82874083,121.25411 C 1.3843072,119.25133 1.5648792,114.62279 -0.50307883,112.90654 C -1.3297718,112.22044 -3.1283867,111.65909 -4.4999997,111.65909 C -10.321956,111.65909 -12.294352,118.60051 -7.2499997,121.33712 C -3.7064287,123.25954 -3.0351277,123.25086 -0.82874083,121.25411 z M 15.919519,114.75219 C 17.114239,112.61658 17.174059,111.58652 16.224369,109.50219 C 15.252829,107.36989 14.363809,106.90909 11.221439,106.90909 C 6.8798211,106.90909 5.0000002,108.30728 5.0000002,111.53651 C 5.0000002,114.25442 9.6286192,118.10769 12.407979,117.70356 C 13.521829,117.54161 15.102019,116.21349 15.919519,114.75219 z M 30.799999,111.70909 C 32.754109,109.75499 32.282959,104.1309 30.065739,102.94428 C 25.727979,100.62278 19.999999,102.96718 19.999999,107.06408 C 19.999999,111.48518 27.708519,114.80057 30.799999,111.70909 z M -64.5,167.68756 C -66.15,167.10256 -68.694467,165.78809 -70.15437,164.76651 C -71.614274,163.74493 -73.696674,162.90909 -74.781926,162.90909 C -77.636917,162.90909 -79.309363,160.38159 -79.620422,155.59687 C -79.77016,153.29359 -80.338847,149.63551 -80.884172,147.46779 C -82.494191,141.06781 -79.723155,129.90909 -76.523833,129.90909 C -74.246028,129.90909 -74.010543,131.29375 -75.465923,136.12961 C -76.861999,140.76841 -76.540911,147.83156 -74.778388,151.25372 C -73.967878,152.82743 -74.134691,153.00112 -75.914173,152.43634 C -77.061378,152.07223 -78,152.1849 -78,152.68672 C -78,153.92838 -74.468533,157.04429 -73.808895,156.38466 C -73.518054,156.09382 -70.85574,157.48732 -67.892642,159.48134 C -62.815026,162.89832 -62.124191,163.0853 -55.880342,162.73249 C -50.594609,162.43382 -48.420249,161.77933 -45.123385,159.4946 C -40.300978,156.15267 -36.870351,151.04839 -36.048547,145.99255 C -35.346892,141.67588 -34.002187,141.41754 -32.166854,145.24684 C -29.015346,151.82224 -35.840265,162.7017 -45.832905,167.03161 C -50.623848,169.10757 -59.60475,169.42315 -64.5,167.68756 z M -33.260218,139.36863 C -36.04716,136.78443 -36.748667,134.48983 -35.069113,133.45181 C -34.557125,133.13538 -32.919004,134.00643 -31.428843,135.38746 L -28.71946,137.89843 L -26.407479,135.40376 C -23.945599,132.74735 -20,132.02751 -20,134.23478 C -20,136.19416 -27.258168,141.90909 -29.746649,141.90909 C -30.172232,141.90909 -31.753338,140.76588 -33.260218,139.36863 z M -27.149469,121.67618 C -25.087388,118.41935 -23,116.92385 -23,118.70332 C -23,119.23181 -23.648252,120.20221 -24.440559,120.85976 C -25.232867,121.51732 -25.634722,122.69742 -25.33357,123.48221 C -24.961343,124.45222 -25.492105,124.90909 -26.991213,124.90909 L -29.196403,124.90909 L -27.149469,121.67618 z"
           id="path2390" />
        <path
           sodipodi:nodetypes="csscssscccssssssssssssscsssccssccssccsssccsssccsssccssccssccsssccssssccssc"
           style="fill:#d41f2a"
           d="M 1.8628601,146.65666 C 14.12739,164.16422 24.026458,178.84498 23.448008,180.3524 C 22.701218,182.29851 -2.3952636,199.9091 -4.4218356,199.9091 C -5.5076326,199.9091 -8.2300466,196.93383 -11.452906,192.225 C -14.345474,187.99875 -19.589647,180.68625 -23.106624,175.975 C -30.325523,166.30476 -32.243189,162.42414 -32.141836,157.69121 C -32.037313,152.8103 -31.031395,151.02839 -27.011145,148.60255 C -25.011821,147.39615 -21.752026,145.10895 -19.767158,143.51988 C -15.036198,140.0881 -11.836631,140.30957 -6.084851,140.67576 M -4.994523,139.34163 C -2.1693329,140.84764 5.7878794,139.04636 5.7878794,135.03766 C 5.7878794,131.474 4.1096384,129.90909 0.28787938,129.90909 C -3.5364196,129.90909 -7.6125789,134.98578 -3.1422583,140.08988 C -1.4301393,142.04474 -7.1982361,139.32666 -10.212516,139.56738 C -12.292573,139.7335 -13.677677,138.29645 -14.450374,137.68527 C -16.905737,135.74315 -18.212121,128.16327 -18.212121,121.99698 C -18.212121,112.93896 -16.782025,111.79862 0.78787938,106.84664 C 8.7628784,104.59892 18.064628,101.66846 21.458438,100.33449 C 24.852238,99.000519 28.055528,97.90909 28.576848,97.90909 C 30.001348,97.90909 38.983248,125.34628 38.610958,128.56049 C 38.301998,131.22796 37.501118,131.61906 20.287878,137.50844 C 11.333733,140.57203 5.4576806,145.38538 2.8664494,144.47513 C -0.0096634385,143.46481 -5.6831151,138.97457 -4.994523,139.34163 z M 0.95913838,194.25411 C 3.4039614,192.04158 3.3434584,187.2768 0.85362038,185.94428 C -1.9176326,184.46115 -4.2835656,184.66378 -6.3833796,186.56409 C -8.7661676,188.72048 -8.7032726,191.41795 -6.2121206,193.9091 C -3.7787736,196.34245 -1.4711236,196.45347 0.95913838,194.25411 z M 17.216448,182.33767 C 22.151828,177.4023 14.795228,169.8775 9.6166181,174.56409 C 7.1302564,176.81422 7.3148014,180.46434 10.010388,182.3524 C 12.840058,184.33438 15.224618,184.3295 17.216448,182.33767 z M -6.7977836,178.68938 C -5.5992726,175.25983 -8.2527226,171.90909 -12.167109,171.90909 C -15.39796,171.90909 -17.212121,173.57351 -17.212121,176.53767 C -17.212121,182.21373 -8.6477906,183.98321 -6.7977836,178.68938 z M 9.2020584,166.68938 C 10.400768,163.25983 7.7473854,159.90909 3.8328914,159.90909 C 0.48523038,159.90909 -1.2121206,161.5913 -1.2121206,164.90909 C -1.2121206,168.53003 0.68371638,170.05105 4.7653814,169.70481 C 7.5309704,169.47021 8.4479184,168.847 9.2020584,166.68938 z M -18.14638,167.87391 C -15.984261,166.71678 -15.575001,162.94621 -17.412121,161.10909 C -18.072121,160.44909 -19.782121,159.90909 -21.212121,159.90909 C -24.408007,159.90909 -26.212121,161.58703 -26.212121,164.5594 C -26.212121,168.17459 -21.967447,169.91888 -18.14638,167.87391 z M -2.1463796,155.87391 C 0.015739384,154.71678 0.42499938,150.94621 -1.4121206,149.10909 C -2.0721206,148.44909 -3.7821206,147.90909 -5.2121206,147.90909 C -8.3566196,147.90909 -10.212121,149.57904 -10.212121,152.40909 C -10.212121,156.44545 -6.3301866,158.11302 -2.1463796,155.87391 z M 20.180888,134.32731 C 22.159958,129.16995 19.898588,124.90909 15.182358,124.90909 C 12.820618,124.90909 9.7878781,127.80719 9.7878781,130.06408 C 9.7878781,134.58432 18.682218,138.23279 20.180888,134.32731 z M 35.406678,128.36813 C 38.848238,123.11565 32.691158,117.77677 27.280588,121.32191 C 24.271268,123.29369 24.082308,126.20352 26.787878,128.90909 C 29.588228,131.70945 33.373008,131.47189 35.406678,128.36813 z M -2.0408616,121.25411 C 0.17218638,119.25133 0.35275838,114.62279 -1.7151996,112.90654 C -2.5418926,112.22044 -4.3405076,111.65909 -5.7121206,111.65909 C -11.534077,111.65909 -13.506473,118.60051 -8.4621206,121.33712 C -4.9185496,123.25954 -4.2472486,123.25086 -2.0408616,121.25411 z M 14.707398,114.75219 C 15.902118,112.61658 15.961938,111.58652 15.012248,109.50219 C 14.040708,107.36989 13.151688,106.90909 10.009318,106.90909 C 5.6677004,106.90909 3.7878794,108.30728 3.7878794,111.53651 C 3.7878794,114.25442 8.4164984,118.10769 11.195858,117.70356 C 12.309708,117.54161 13.889898,116.21349 14.707398,114.75219 z M 29.587878,111.70909 C 31.541988,109.75498 31.070838,104.13089 28.853618,102.94427 C 24.515858,100.62277 18.787878,102.96718 18.787878,107.06408 C 18.787878,111.48518 26.496398,114.80057 29.587878,111.70909 z"
           id="path2388" />
        <path
           sodipodi:nodetypes="cssssssssssccssssccscccssccsscccsccsssccsssccssccsssssccssssccsssccsssccssssccssssccssssccscccsc"
           style="fill:#b0292f"
           d="M -10.240785,192.83105 C -13.133353,188.6048 -18.322544,181.35645 -21.772319,176.72361 C -29.253392,166.67698 -31.566974,162.45535 -26.544816,168.01515 C -24.557562,170.21515 -22.609511,172.737 -22.215813,173.61927 C -21.822116,174.50153 -20.492835,176.52653 -19.261855,178.11927 C -18.030875,179.712 -14.928898,184.16515 -12.368572,188.01515 C -4.6214474,199.66462 -3.5708044,200.33947 0.6480616,196.37605 C 1.9003926,195.19955 3.8327266,193.73705 4.9421376,193.12605 C 8.9895776,190.89697 22.536509,181.23446 23.839849,179.64704 C 25.053339,178.16903 25.147029,178.20021 24.833379,179.97762 C 24.427909,182.2753 -0.4555184,200.51515 -3.1846324,200.51515 C -4.3016964,200.51515 -6.9714004,197.60786 -10.240785,192.83105 z M -8.0000004,189.26079 C -8.0000004,188.42255 -7.1737064,186.71629 -6.1637924,185.4691 C -2.5740634,181.03597 5.1318006,183.46016 4.9210526,188.95628 C 4.8663426,190.38305 4.6775186,190.55463 4.3060186,189.51515 C 2.6992066,185.0192 -2.8793534,184.27502 -5.9274204,188.15001 C -7.2983814,189.8929 -8.0000004,190.26893 -8.0000004,189.26079 z M 20.149829,178.42014 C 19.939029,176.1761 16.735029,173.51515 14.243839,173.51515 C 13.089569,173.51515 11.156699,174.75265 9.9485796,176.26515 L 7.7519966,179.01515 L 8.4983866,176.51515 C 9.6579796,172.63117 10.982219,171.51515 14.431319,171.51515 C 19.033469,171.51515 21.265259,173.47967 20.735619,177.06446 C 20.495839,178.68734 20.232239,179.29739 20.149829,178.42014 z M -16.829533,175.12113 C -16.64829,174.07942 -15.241877,172.28866 -13.704171,171.14166 C -11.146768,169.23406 -10.686658,169.18238 -8.3088274,170.53568 C -6.8790944,171.34939 -5.3024694,173.12699 -4.8052164,174.48591 L -3.9011194,176.95667 L -6.2650114,174.73591 C -9.3339014,171.85284 -13.41432,171.86572 -15.522829,174.76515 C -16.935187,176.70729 -17.113977,176.756 -16.829533,175.12113 z M -0.9852584,164.37594 C -1.0303644,159.3604 6.8290076,156.19324 9.6720096,160.08128 C 11.650129,162.78652 11.276619,164.07547 9.0884346,162.09518 C 6.3943406,159.65706 1.8618386,160.38838 0.2879126,163.51515 C -0.5373504,165.15462 -0.9755914,165.45091 -0.9852584,164.37594 z M -15.767927,162.51515 C -17.300096,160.06176 -21.644436,159.8834 -24.171259,162.17014 C -26.838246,164.58373 -26.657161,161.59765 -23.961045,158.70371 C -20.458169,154.94382 -15.723908,156.4671 -14.446325,161.76515 C -13.660434,165.02419 -14.059556,165.25069 -15.767927,162.51515 z M -30.921053,156.09848 C -30.964474,155.04432 -30.728125,154.45369 -30.395833,154.78598 C -30.063542,155.11828 -30.028015,155.98078 -30.316886,156.70265 C -30.636112,157.50038 -30.873069,157.26343 -30.921053,156.09848 z M -9.9846874,150.42014 C -9.9600534,148.15987 -8.6566414,146.7153 -5.5897944,145.54929 C -3.2479374,144.65892 -2.6927344,145.29871 -1.1746324,146.67258 C -0.15155244,147.59845 0.9999996,148.52038 0.9999996,149.37014 C 0.9999996,150.57182 0.7333326,150.64848 -0.2000004,149.71515 C -1.9158514,147.9993 -6.0321284,148.23425 -8.1712594,150.17014 C -9.6207304,151.48189 -9.9968244,151.53374 -9.9846874,150.42014 z M 3.9999996,143.20953 C 4.8249996,142.44169 7.9749996,141.10671 10.999999,140.2429 C 17.252229,138.45753 20.958659,137.20074 29.499998,133.96987 C 36.544421,131.30522 40.658121,130.27202 39.394051,131.48487 C 38.902321,131.95668 30.4,135.10185 20.499999,138.47415 C 10.6,141.84645 3.1749996,143.97737 3.9999996,143.20953 z M -1.7925184,129.76515 C -1.2219444,129.07765 0.0037805952,128.51515 0.9313146,128.51515 C 1.8588486,128.51515 3.3870046,129.07765 4.3272176,129.76515 C 5.7892916,130.83425 5.3950866,131.01515 1.6033836,131.01515 C -1.8298824,131.01515 -2.5959134,130.73318 -1.7925184,129.76515 z M 11.999999,126.72363 C 11.999999,123.39491 17.804229,122.53635 20.461009,125.47207 C 22.197569,127.39094 22.170999,127.40597 19.094739,126.24481 C 16.649319,125.32177 15.521099,125.33314 13.978729,126.29636 C 12.890429,126.97602 11.999999,127.16829 11.999999,126.72363 z M 36.666361,123.08808 C 35.736571,120.66508 31.327591,120.07049 28.419529,121.97592 C 25.928949,123.60781 25.885099,123.59836 26.925749,121.65388 C 28.972208,117.83004 33.654601,117.98419 36.974751,121.98472 C 37.695391,122.85304 38.051471,123.79702 37.766041,124.08245 C 37.480611,124.36787 36.985751,123.92041 36.666361,123.08808 z M -1.9013914,112.99941 C -3.5904734,112.07121 -5.0435974,111.96143 -6.8002724,112.62931 C -8.9803744,113.45819 -9.1361984,113.38419 -8.0264364,112.04701 C -6.3810404,110.06442 -2.5733724,110.08464 -0.5714294,112.08658 C 0.2928566,112.95087 0.9999996,113.85087 0.9999996,114.08658 C 0.9999996,114.60603 1.0698276,114.63219 -1.9013914,112.99941 z M 5.9127766,107.76515 C 6.7700706,106.09884 7.9538826,105.51515 10.47617,105.51515 C 12.349359,105.51515 14.160079,105.96515 14.499999,106.51515 C 14.871239,107.11583 13.577049,107.51515 11.259019,107.51515 C 9.1365596,107.51515 6.8049166,108.07765 6.0775926,108.76515 C 4.9862556,109.79673 4.9574566,109.622 5.9127766,107.76515 z M 19.999999,104.86127 C 19.999999,103.24738 22.383369,100.75036 24.499999,100.14671 C 25.689669,99.80742 27.512909,100.35964 28.999998,101.50966 L 31.500001,103.44301 L 27.727379,102.84457 C 24.897399,102.39565 23.460669,102.69326 21.977379,104.03563 C 20.889819,105.01985 19.999999,105.39139 19.999999,104.86127 z"
           id="path2386" />
      </g>
    </g>
  </g>
</svg>
